<svg id="Appstore" xmlns="http://www.w3.org/2000/svg" xmlns:xlink="http://www.w3.org/1999/xlink" width="334" height="46" viewBox="0 0 334 46">
  <defs>
    <linearGradient id="linear-gradient" x1="0.5" x2="0.5" y2="0.389" gradientUnits="objectBoundingBox">
      <stop offset="0" stop-color="#fbda09"/>
      <stop offset="1" stop-color="#ffbc00"/>
    </linearGradient>
    <clipPath id="clip-path">
      <path id="yellow" d="M11.622,3.4a3.232,3.232,0,0,1,5.648,0L27.445,21.692a3.232,3.232,0,0,1-2.824,4.8H4.273a3.232,3.232,0,0,1-2.824-4.8Z" transform="translate(26.22 0.306) rotate(90)" fill="url(#linear-gradient)"/>
    </clipPath>
    <linearGradient id="linear-gradient-3" y1="0.585" x2="0.693" y2="0.391" gradientUnits="objectBoundingBox">
      <stop offset="0" stop-color="#01e2ff"/>
      <stop offset="1" stop-color="#01c4ff"/>
    </linearGradient>
    <linearGradient id="linear-gradient-4" x1="0.203" y1="0.201" x2="0.838" y2="0.836" gradientUnits="objectBoundingBox">
      <stop offset="0" stop-color="#28d781"/>
      <stop offset="1" stop-color="#02f076"/>
    </linearGradient>
    <linearGradient id="linear-gradient-5" x1="0.745" y1="0.174" x2="0.101" y2="0.912" gradientUnits="objectBoundingBox">
      <stop offset="0" stop-color="#f2414e"/>
      <stop offset="1" stop-color="#e02554"/>
    </linearGradient>
  </defs>
  <g id="backfround_copy" data-name="backfround copy">
    <g id="backfround_copy-2" data-name="backfround copy" stroke="#a6a6a6" stroke-miterlimit="10" stroke-width="1.026">
      <rect width="152" height="46" rx="4.104" stroke="none"/>
      <rect x="0.513" y="0.513" width="150.974" height="44.974" rx="3.591" fill="none"/>
    </g>
    <g id="backfround_copy-3" data-name="backfround copy" fill="none" stroke="#8f8f8f" stroke-miterlimit="10" stroke-width="0.513">
      <rect width="152" height="46" rx="4.104" stroke="none"/>
      <rect x="0.257" y="0.257" width="151.487" height="45.487" rx="3.848" fill="none"/>
    </g>
  </g>
  <g id="Playstore" transform="translate(182)">
    <g id="background">
      <g id="background-2" data-name="background" stroke="#a6a6a6" stroke-miterlimit="10" stroke-width="1.026">
        <rect width="152" height="45.916" rx="5.13" stroke="none"/>
        <rect x="0.513" y="0.513" width="150.974" height="44.89" rx="4.617" fill="none"/>
      </g>
      <g id="background-3" data-name="background" fill="none" stroke="#8f8f8f" stroke-miterlimit="10" stroke-width="0.513">
        <rect width="152" height="45.916" rx="5.13" stroke="none"/>
        <rect x="0.257" y="0.257" width="151.487" height="45.403" rx="4.874" fill="none"/>
      </g>
    </g>
    <g id="get_it_on" data-name="get it on" transform="translate(46.612 7.736)">
      <path id="o" d="M3.68,7.528A3.727,3.727,0,0,1,0,3.764,3.727,3.727,0,0,1,3.68,0,3.727,3.727,0,0,1,7.36,3.764,3.727,3.727,0,0,1,3.68,7.528Zm0-6.377A2.588,2.588,0,0,0,1.124,3.764,2.588,2.588,0,0,0,3.68,6.377,2.588,2.588,0,0,0,6.235,3.764,2.588,2.588,0,0,0,3.68,1.15Z" transform="translate(30.257)" fill="#fff"/>
      <path id="e" d="M0,7V0H4.089V.836H1.124v2.2H3.782v.836H1.124v2.3H4.089V7Z" transform="translate(7.871 0.314)" fill="#fff"/>
      <path id="t" d="M1.738,7V.836H0V0H4.6V.836H2.862V7Z" transform="translate(13.084 0.314)" fill="#fff"/>
      <path id="t-2" data-name="t" d="M1.738,7V.836H0V0H4.6V.836H2.862V7Z" transform="translate(23.102 0.314)" fill="#fff"/>
      <rect id="i" width="1.124" height="7.005" transform="translate(20.955 0.314)" fill="#fff"/>
      <path id="n" d="M4.4,7,1.124,1.537V7H0V0H1.328L4.4,5.126V0H5.52V7Z" transform="translate(38.537 0.314)" fill="#fff"/>
      <g id="g" transform="translate(0 0.105)">
        <path id="Rectangle_1" data-name="Rectangle 1" d="M0,0H3.079l-.03,1H0Z" transform="translate(3.658 3.363)" fill="#fff"/>
        <path id="Oval_1" data-name="Oval 1" d="M3.651,7.38H3.612A3.659,3.659,0,0,1,0,3.69,3.656,3.656,0,0,1,3.612,0,3.371,3.371,0,0,1,6.131,1.019l-.7.72a2.428,2.428,0,0,0-1.784-.711A2.637,2.637,0,0,0,1.037,3.69,2.638,2.638,0,0,0,3.642,6.353,2.422,2.422,0,0,0,5.412,5.7,2.746,2.746,0,0,0,6.1,3.69c0-.108,0-.218-.007-.327h.9V3.4a3.53,3.53,0,0,1-.741,2.88A3.383,3.383,0,0,1,3.651,7.38Z" fill="#fff"/>
      </g>
    </g>
    <g id="googleplay" transform="translate(46.101 20.073)">
      <g id="big_P" data-name="big P" transform="translate(63.785 0.523)">
        <path id="Combined_Shape" data-name="Combined Shape" d="M5.8,9H0V0H5.8A4.329,4.329,0,0,1,7.463.78,4.416,4.416,0,0,1,9.131,4.5,4.417,4.417,0,0,1,7.463,8.217,4.323,4.323,0,0,1,5.8,9h0ZM1.124,2.176V7H5.058c.018,0,1.791-.028,1.791-2.415S5.076,2.176,5.058,2.176Z" transform="translate(0.511)" fill="#fff"/>
        <rect id="Rectangle_6" data-name="Rectangle 6" width="2.044" height="14.636" fill="#fff"/>
      </g>
      <rect id="y" width="2.044" height="14.636" transform="translate(74.62 0.523)" fill="#fff"/>
      <path id="a" d="M8.191,9.718H6.146V8.676A4.855,4.855,0,0,1,3.261,9.689c-.106.007-.211.01-.312.01A2.641,2.641,0,0,1,.371,8.25,3.782,3.782,0,0,1,0,6.653c0-.008,0-.02,0-.035A2.774,2.774,0,0,1,2.433,3.574a7.422,7.422,0,0,1,1.112-.086,5.893,5.893,0,0,1,2.6.567V3.623A1.95,1.95,0,0,0,4.194,2.009c-1.84,0-2.268,1.019-2.273,1.03l-1.7-1.03A4.174,4.174,0,0,1,4.03,0,4.165,4.165,0,0,1,7.436,1.35a3.331,3.331,0,0,1,.755,1.991V9.717ZM4.076,5.281c-.942,0-2.079.249-2.151,1.437a1.177,1.177,0,0,0,.278.915,1.417,1.417,0,0,0,1.062.375c1.116,0,2.577-.75,2.788-1.717A3.949,3.949,0,0,0,6,5.541,8.246,8.246,0,0,0,4.076,5.281Z" transform="translate(78.095 5.436)" fill="#fff"/>
      <path id="y-2" data-name="y" d="M1.738,13.487,3.645,8.854,0,0H2.045L4.667,6.37,7.268.05H9.313L3.782,13.487Z" transform="translate(86.477 5.75)" fill="#fff"/>
      <path id="e-2" data-name="e" d="M4.8,9.936A4.5,4.5,0,0,1,1.15,8.2,5.388,5.388,0,0,1,0,5.021a5.782,5.782,0,0,1,1.011-3.21A4.19,4.19,0,0,1,4.592,0,4.111,4.111,0,0,1,8.04,1.867a6.2,6.2,0,0,1,.877,1.867L2.451,6.468A2.351,2.351,0,0,0,4.812,7.989h.013A3.069,3.069,0,0,0,7.194,6.61l1.64,1.137A4.919,4.919,0,0,1,4.8,9.936ZM4.7,1.9a1.67,1.67,0,0,0-.307.029A2.587,2.587,0,0,0,2.088,4.784L6.456,2.961A2.37,2.37,0,0,0,4.7,1.9Z" transform="translate(50.292 5.436)" fill="#fff"/>
      <rect id="i-2" data-name="i" width="2.163" height="14.606" transform="translate(47.225 0.523)" fill="#fff"/>
      <path id="g-2" data-name="g" d="M4.674,14.391a4.4,4.4,0,0,1-3.344-1.462,4.91,4.91,0,0,1-.924-1.462l1.836-.79a2.711,2.711,0,0,0,2.528,1.8c2.382,0,2.5-2.332,2.5-2.8v-1a3.232,3.232,0,0,1-2.7,1.241A4.573,4.573,0,0,1,1.5,8.616,4.992,4.992,0,0,1,0,4.971,4.777,4.777,0,0,1,4.595,0L4.7,0a3.217,3.217,0,0,1,2.57,1.228V.318l2,.017V9.551C9.271,11.96,7.849,14.391,4.674,14.391ZM4.741,1.947A2.871,2.871,0,0,0,2.1,5a2.871,2.871,0,0,0,2.64,3.051A2.871,2.871,0,0,0,7.381,5,2.871,2.871,0,0,0,4.741,1.947Z" transform="translate(36.492 5.436)" fill="#fff"/>
      <path id="o-2" data-name="o" d="M4.866,9.932A4.922,4.922,0,0,1,0,4.966,4.923,4.923,0,0,1,4.866,0,4.923,4.923,0,0,1,9.733,4.966,4.922,4.922,0,0,1,4.866,9.932ZM4.835,1.948A2.891,2.891,0,0,0,2.1,4.966,2.891,2.891,0,0,0,4.835,7.985,2.891,2.891,0,0,0,7.57,4.966,2.891,2.891,0,0,0,4.835,1.948Z" transform="translate(25.861 5.436)" fill="#fff"/>
      <path id="o-3" data-name="o" d="M4.866,9.932A4.922,4.922,0,0,1,0,4.966,4.923,4.923,0,0,1,4.866,0,4.923,4.923,0,0,1,9.733,4.966,4.922,4.922,0,0,1,4.866,9.932ZM4.835,1.948A2.891,2.891,0,0,0,2.1,4.966,2.891,2.891,0,0,0,4.835,7.985,2.891,2.891,0,0,0,7.57,4.966,2.891,2.891,0,0,0,4.835,1.948Z" transform="translate(15.333 5.436)" fill="#fff"/>
      <g id="big_g" data-name="big g">
        <path id="Rectangle_1-2" data-name="Rectangle 1" d="M0,0H6.425L6.361,2.077H0Z" transform="translate(7.634 7.011)" fill="#fff"/>
        <path id="Oval_1-2" data-name="Oval 1" d="M7.619,15.385h-.08a7.432,7.432,0,0,1-5.33-2.256A7.716,7.716,0,0,1,0,7.692,7.625,7.625,0,0,1,7.538,0a7.038,7.038,0,0,1,5.256,2.123l-1.47,1.5A5.073,5.073,0,0,0,7.6,2.142a5.5,5.5,0,0,0-5.439,5.55A5.5,5.5,0,0,0,7.6,13.243a5.064,5.064,0,0,0,3.685-1.349,5.708,5.708,0,0,0,1.448-4.2c.005-.229,0-.458-.015-.681h1.876c0,.022,0,.044,0,.066v.011a7.353,7.353,0,0,1-1.544,6A7.064,7.064,0,0,1,7.619,15.385Z" fill="#fff"/>
      </g>
    </g>
    <g id="logo_play" transform="translate(11.142 8.155)">
      <path id="yellow-2" data-name="yellow" d="M11.622,3.4a3.232,3.232,0,0,1,5.648,0L27.445,21.692a3.232,3.232,0,0,1-2.824,4.8H4.273a3.232,3.232,0,0,1-2.824-4.8Z" transform="translate(26.22 0.306) rotate(90)" fill="url(#linear-gradient)"/>
      <g id="logo_play-2" data-name="logo_play" clip-path="url(#clip-path)">
        <path id="blue" d="M.185,0,14.473,14.525,0,29.624Z" transform="translate(-0.185 -0.01)" fill="url(#linear-gradient-3)"/>
        <path id="green" d="M0,0,17.226,17.52l5.121-5Z" transform="translate(-2.938 -3.001)" fill="url(#linear-gradient-4)"/>
        <path id="red" d="M15.582,0l7.84,8.082L0,16.165Z" transform="translate(-1.292 14.516)" fill="url(#linear-gradient-5)"/>
      </g>
    </g>
  </g>
  <path id="App_Store" data-name="App Store" d="M28.191,19.6H25.928V4.164h2.178V6.092h.168a3.971,3.971,0,0,1,3.6-2.12,4.265,4.265,0,0,1,3.471,1.619,7.019,7.019,0,0,1,1.285,4.4,7.056,7.056,0,0,1-1.282,4.4,4.235,4.235,0,0,1-3.453,1.625,3.706,3.706,0,0,1-3.525-1.959h-.178V19.6ZM31.242,6.038c-1.908,0-3.093,1.518-3.093,3.961s1.181,3.951,3.082,3.951c1.924,0,3.073-1.481,3.073-3.962S33.159,6.038,31.242,6.038ZM16.457,19.6H14.195V4.164h2.179V6.092h.168a3.969,3.969,0,0,1,3.6-2.12,4.266,4.266,0,0,1,3.471,1.619,7.018,7.018,0,0,1,1.285,4.4,7.055,7.055,0,0,1-1.282,4.4,4.236,4.236,0,0,1-3.453,1.625,3.7,3.7,0,0,1-3.524-1.959h-.179V19.6ZM19.509,6.038c-1.909,0-3.094,1.518-3.094,3.961S17.6,13.95,19.5,13.95c1.924,0,3.073-1.481,3.073-3.962S21.426,6.038,19.509,6.038ZM47.216,16.2a6.584,6.584,0,0,1-4.1-1.229,4.4,4.4,0,0,1-1.7-3.3h2.336c.2,1.48,1.6,2.4,3.64,2.4,1.9,0,3.283-1,3.283-2.366,0-1.173-.866-1.88-2.894-2.366l-1.957-.481A5.874,5.874,0,0,1,42.8,7.324a3.822,3.822,0,0,1-.969-2.742,4.174,4.174,0,0,1,1.519-3.323A6.181,6.181,0,0,1,47.353,0c3.085,0,5.335,1.823,5.472,4.432H50.531c-.222-1.427-1.451-2.313-3.209-2.313-1.857,0-3.1.925-3.1,2.3,0,1.1.8,1.735,2.778,2.205l1.673.418a7.008,7.008,0,0,1,3.367,1.579,3.689,3.689,0,0,1,1.031,2.768C53.067,14.356,50.825,16.2,47.216,16.2Zm36.21-.15a4.981,4.981,0,0,1-3.878-1.611,6.557,6.557,0,0,1-1.415-4.406,6.664,6.664,0,0,1,1.43-4.443A4.923,4.923,0,0,1,83.415,3.94a4.794,4.794,0,0,1,3.753,1.566,6.465,6.465,0,0,1,1.361,4.311v.8H80.437v.129c.074,2.06,1.243,3.34,3.051,3.34a2.731,2.731,0,0,0,2.725-1.413h2.178C87.871,14.788,86.014,16.048,83.426,16.048ZM83.4,5.9a2.945,2.945,0,0,0-2.967,3.019h5.787A2.8,2.8,0,0,0,83.4,5.9ZM65.453,16.048a5.134,5.134,0,0,1-3.963-1.612,6.547,6.547,0,0,1-1.446-4.447,6.517,6.517,0,0,1,1.45-4.433,5.649,5.649,0,0,1,7.909,0A6.524,6.524,0,0,1,70.85,9.988a6.554,6.554,0,0,1-1.444,4.447A5.117,5.117,0,0,1,65.453,16.048Zm0-10.063c-1.953,0-3.073,1.459-3.073,4S63.5,14,65.453,14s3.073-1.463,3.073-4.015S67.405,5.985,65.453,5.985Zm-6.925,9.9a3.922,3.922,0,0,1-2.7-.731,3.042,3.042,0,0,1-.814-2.417V6.156H53.13V4.218h1.884V1.338h2.263v2.88h2.568V6.156H57.276v5.995c0,1.214.5,1.756,1.62,1.756a6.464,6.464,0,0,0,.759-.045l.084-.008V15.77A6.776,6.776,0,0,1,58.528,15.888ZM2.42,15.824H0L5.482.374H8.018L13.5,15.822H11l-1.39-4.1H3.82l-1.4,4.1ZM6.629,3.18,4.419,9.71H9.007l-2.2-6.53H6.629ZM74.145,15.824H71.882V4.164H74.06V5.953h.168a3.083,3.083,0,0,1,3.083-1.981,4.728,4.728,0,0,1,1,.1v2.27a6.1,6.1,0,0,0-1.252-.14A2.709,2.709,0,0,0,74.145,8.94v6.883Z" transform="translate(46.196 18.736)" fill="#fff"/>
  <path id="Download_on_the" data-name="Download on the" d="M83.14,7.826c-1.555,0-2.521-1.1-2.521-2.865A3.175,3.175,0,0,1,81.3,2.844a2.344,2.344,0,0,1,1.835-.785c1.525,0,2.435,1.046,2.435,2.8v.383H81.717V5.3a1.451,1.451,0,0,0,1.453,1.59,1.3,1.3,0,0,0,1.3-.672H85.5A2.219,2.219,0,0,1,83.14,7.826Zm-.01-4.833A1.4,1.4,0,0,0,81.717,4.43h2.756A1.332,1.332,0,0,0,83.13,2.993ZM56.4,7.826c-1.612,0-2.575-1.079-2.575-2.885,0-1.777.987-2.881,2.575-2.881s2.57,1.1,2.57,2.881C58.973,6.747,58.013,7.826,56.4,7.826Zm0-4.792c-.929,0-1.463.7-1.463,1.907s.533,1.912,1.463,1.912,1.463-.7,1.463-1.912S57.333,3.033,56.4,3.033ZM34.162,7.826c-1.613,0-2.576-1.079-2.576-2.885,0-1.777.987-2.881,2.576-2.881s2.57,1.1,2.57,2.881C36.733,6.747,35.772,7.826,34.162,7.826Zm0-4.792c-.93,0-1.463.7-1.463,1.907s.533,1.912,1.463,1.912,1.463-.7,1.463-1.912S35.092,3.033,34.162,3.033ZM9.962,7.826c-1.613,0-2.576-1.079-2.576-2.885,0-1.777.987-2.881,2.576-2.881s2.57,1.1,2.57,2.881C12.533,6.747,11.572,7.826,9.962,7.826Zm0-4.792c-.93,0-1.463.7-1.463,1.907s.533,1.912,1.463,1.912,1.463-.7,1.463-1.912S10.892,3.033,9.962,3.033ZM46.335,7.81c-1.4,0-2.264-1.1-2.264-2.87,0-1.741.889-2.866,2.264-2.866a1.792,1.792,0,0,1,1.674.974h.08V0h1.077V7.718H48.134V6.842h-.086A1.891,1.891,0,0,1,46.335,7.81Zm.306-4.751c-.9,0-1.458.721-1.458,1.881,0,1.181.545,1.886,1.458,1.886s1.468-.721,1.468-1.881S47.546,3.059,46.641,3.059ZM39.79,7.81a1.653,1.653,0,0,1-1.819-1.662c0-.986.721-1.574,2.029-1.657L41.478,4.4V3.926c0-.592-.4-.918-1.117-.918-.6,0-1.017.225-1.138.616H38.182c.11-.951.986-1.565,2.23-1.565,1.36,0,2.139.68,2.139,1.867V7.718H41.513v-.78h-.085A1.831,1.831,0,0,1,39.79,7.81Zm1.688-2.6L40.146,5.3c-.745.051-1.093.305-1.093.8,0,.48.4.79,1.013.79a1.3,1.3,0,0,0,1.412-1.213V5.21ZM72.155,7.749c-1.2,0-1.674-.42-1.674-1.5V3.115h-.9V2.192h.9V.821h1.077V2.192h1.223v.922H71.558V5.97c0,.578.238.836.772.836a3.135,3.135,0,0,0,.372-.022l.028,0v.913A3.236,3.236,0,0,1,72.155,7.749Zm3.237-.03H74.315V0h1.067V3.059h.086a1.767,1.767,0,0,1,1.719-.994,1.823,1.823,0,0,1,1.929,2.07V7.717H78.038V4.4c0-.886-.41-1.336-1.218-1.336a1.328,1.328,0,0,0-1.428,1.407V7.718Zm-13.792,0H60.523V2.166H61.56v.882h.08a1.774,1.774,0,0,1,1.723-.989,1.811,1.811,0,0,1,1.9,2.066V7.717H64.191V4.4c0-.9-.39-1.336-1.193-1.336a1.3,1.3,0,0,0-1.4,1.408V7.718Zm-38.178,0H22.345V2.166h1.038v.882h.08a1.774,1.774,0,0,1,1.723-.989,1.81,1.81,0,0,1,1.9,2.066V7.717H26.013V4.4c0-.9-.39-1.336-1.192-1.336a1.3,1.3,0,0,0-1.4,1.408V7.718Zm-7.4,0H14.918l-1.5-5.552h1.093L15.485,6.4h.08l1.122-4.237h1.032L18.842,6.4h.086L19.9,2.166h1.077l-1.5,5.551H18.361L17.233,3.63h-.085L16.026,7.718Zm13.961,0H28.91V0h1.077V7.717Zm-27.376,0H0V.362H2.611a3.314,3.314,0,0,1,2.5.96,3.87,3.87,0,0,1,.9,2.7C6.013,6.37,4.773,7.718,2.611,7.718ZM1.122,1.4V6.679H2.485C4,6.679,4.87,5.714,4.87,4.033,4.87,2.386,3.978,1.4,2.485,1.4Z" transform="translate(48.316 6.69)" fill="#fff"/>
  <g id="logo_apple" transform="translate(13.34 7.995)">
    <g id="Group_5" data-name="Group 5">
      <path id="Fill_2" data-name="Fill 2" d="M19.741,8.589a6.725,6.725,0,0,1,3.144-5.635A6.722,6.722,0,0,0,17.561.024c-2.24-.24-4.413,1.364-5.554,1.364-1.164,0-2.921-1.341-4.815-1.3a7.074,7.074,0,0,0-5.967,3.7c-2.58,4.545-.656,11.225,1.816,14.9,1.237,1.8,2.682,3.808,4.573,3.738,1.85-.076,2.542-1.2,4.775-1.2,2.213,0,2.862,1.2,4.791,1.154,1.986-.03,3.236-1.806,4.43-3.623a14.956,14.956,0,0,0,2.026-4.2,6.475,6.475,0,0,1-3.894-5.97" transform="translate(0.099 7.13)" fill="#fff"/>
      <path id="Fill_3" data-name="Fill 3" d="M4.352,4.738A6.687,6.687,0,0,0,5.839,0,6.581,6.581,0,0,0,1.56,2.252,6.36,6.36,0,0,0,.034,6.815,5.431,5.431,0,0,0,4.352,4.738" transform="translate(11.844 0)" fill="#fff"/>
    </g>
  </g>
</svg>
