<svg xmlns="http://www.w3.org/2000/svg" width="24.965" height="30.099" viewBox="0 0 24.965 30.099">
  <g id="money" transform="translate(-0.016 0)">
    <path id="Path" d="M1.419.651a1.431,1.431,0,0,0-.4-.292A4.845,4.845,0,0,0,0,0V2.692A1.912,1.912,0,0,0,1.508,1.9h0a1.23,1.23,0,0,0,.112-.84A.845.845,0,0,0,1.419.651Z" transform="translate(13.127 19.342)" fill="#00d09c"/>
    <path id="Path-2" data-name="Path" d="M.048.054l0-.007h0Z" transform="translate(14.598 21.207)"/>
    <path id="Path-3" data-name="Path" d="M.182.668a1.01,1.01,0,0,0-.175.473,1.135,1.135,0,0,0,.058.523.839.839,0,0,0,.326.358,2.545,2.545,0,0,0,.484.25c.141.057.3.111.472.164V0A1.859,1.859,0,0,0,.182.668Z" transform="translate(10.3 15.022)" fill="#00d09c"/>
    <path id="Path-4" data-name="Path" d="M.058.036.042.064h0Z" transform="translate(14.605 21.194)"/>
    <path id="Path-5" data-name="Path" d="M.049.051Z" transform="translate(14.625 21.158)"/>
    <path id="Shape" d="M13,30.1h0c-.906,0-1.872-.037-2.872-.11a14.187,14.187,0,0,1-7.17-2.143,6.679,6.679,0,0,1-2.8-4.3c-.538-2.771.378-6.254,2.581-9.809A19.493,19.493,0,0,1,9.778,6.71,8.15,8.15,0,0,1,6.386,1.631,1.549,1.549,0,0,1,6.628.382,1.119,1.119,0,0,1,7.5,0,4.74,4.74,0,0,1,9.216.531l.117.052a5.338,5.338,0,0,0,2.054.584,2.274,2.274,0,0,0,.27-.016A16.2,16.2,0,0,0,13.441.7,13.216,13.216,0,0,1,16.514.065,2.167,2.167,0,0,1,16.937.1a.342.342,0,0,1,.251.288c.272,1.067-1.171,4.513-3.129,6.157,2.6,1.07,5.593,3.8,7.813,7.124,2.431,3.64,3.5,7.344,2.947,10.163a6.519,6.519,0,0,1-3.261,4.472C19.545,29.5,16.664,30.1,13,30.1ZM9.469,19.989a.751.751,0,0,0-.658.4.738.738,0,0,0-.08.417,1.258,1.258,0,0,0,.058.25c.026.089.057.179.092.268a3.262,3.262,0,0,0,.558.922,3.62,3.62,0,0,0,1.812,1.114c.122.033.249.063.379.087v.862a.742.742,0,0,0,.431.672.728.728,0,0,0,.307.067.739.739,0,0,0,.743-.739V23.52a3.853,3.853,0,0,0,2.09-.738,2.672,2.672,0,0,0,.761-3.3l.02.03L15.92,19.4l-.029-.051-.033-.057.033.057.027.048a2.931,2.931,0,0,0-1.543-1.209,9.345,9.345,0,0,0-1.265-.375v-2.8a2.374,2.374,0,0,1,1.016.4,1.414,1.414,0,0,1,.35.367,1.262,1.262,0,0,1,.121.233c.016.042.029.085.04.127s.023.081.038.12a.749.749,0,0,0,.659.473h.031a.741.741,0,0,0,.734-.848,1.6,1.6,0,0,0-.07-.265,2.736,2.736,0,0,0-.1-.271,2.86,2.86,0,0,0-.591-.851,3.655,3.655,0,0,0-1.933-.938c-.11-.019-.2-.034-.29-.044V12.7a.742.742,0,0,0-.431-.672.734.734,0,0,0-.306-.067.739.739,0,0,0-.743.739v.819a3.714,3.714,0,0,0-2,.885,2.61,2.61,0,0,0-.608.833A2.515,2.515,0,0,0,8.8,16.31a2.449,2.449,0,0,0,.229,1.06,2.243,2.243,0,0,0,.655.788A5.314,5.314,0,0,0,11.63,19v2.93a2.185,2.185,0,0,1-.942-.513A1.889,1.889,0,0,1,10.363,21a1.61,1.61,0,0,1-.113-.243c-.019-.05-.034-.1-.048-.152-.01-.035-.02-.07-.031-.1a.75.75,0,0,0-.637-.5Z" transform="translate(0.017 0)" fill="#00d09c"/>
    <path id="Path-6" data-name="Path" d="M.058.036.042.064Z" transform="translate(14.583 21.233)" fill="#00d09c"/>
  </g>
</svg>
